<svg width="220" height="59" viewBox="0 0 220 59" fill="none" xmlns="http://www.w3.org/2000/svg">
<path d="M20.608 18.728H31.616L19.232 31.272L32.896 45H21.632L11.488 34.44V45H1.76V0.967999H11.488V27.88L20.608 18.728ZM32.6205 45V18.728H42.3485V45H32.6205ZM37.6125 13.32C36.0765 13.32 34.7752 12.7867 33.7085 11.72C32.6418 10.632 32.1085 9.34133 32.1085 7.848C32.1085 6.35467 32.6418 5.064 33.7085 3.976C34.7965 2.86666 36.0978 2.312 37.6125 2.312C38.6152 2.312 39.5325 2.568 40.3645 3.08C41.1965 3.57066 41.8685 4.232 42.3805 5.064C42.8925 5.896 43.1485 6.824 43.1485 7.848C43.1485 9.34133 42.6045 10.632 41.5165 11.72C40.4285 12.7867 39.1272 13.32 37.6125 13.32ZM66.0745 29.768L59.9625 45H51.0345L42.3305 18.728H52.6665L56.8585 34.6L62.9065 19.24H69.3065L75.2585 34.6L79.4825 18.728H89.8185L81.1465 45H72.2505L66.0745 29.768ZM89.7205 45V18.728H99.4485V45H89.7205ZM94.7125 13.32C93.1765 13.32 91.8752 12.7867 90.8085 11.72C89.7418 10.632 89.2085 9.34133 89.2085 7.848C89.2085 6.35467 89.7418 5.064 90.8085 3.976C91.8965 2.86666 93.1978 2.312 94.7125 2.312C95.7152 2.312 96.6325 2.568 97.4645 3.08C98.2965 3.57066 98.9685 4.232 99.4805 5.064C99.9925 5.896 100.249 6.824 100.249 7.848C100.249 9.34133 99.7045 10.632 98.6165 11.72C97.5285 12.7867 96.2272 13.32 94.7125 13.32ZM109.478 45.768C107.9 45.768 106.534 45.2027 105.382 44.072C104.252 42.92 103.686 41.5547 103.686 39.976C103.686 38.3547 104.252 36.9787 105.382 35.848C106.534 34.696 107.9 34.12 109.478 34.12C111.1 34.12 112.476 34.696 113.606 35.848C114.737 36.9787 115.302 38.3547 115.302 39.976C115.302 41.5547 114.737 42.92 113.606 44.072C112.476 45.2027 111.1 45.768 109.478 45.768ZM139.412 29.768L133.3 45H124.372L115.668 18.728H126.004L130.196 34.6L136.244 19.24H142.644L148.596 34.6L152.82 18.728H163.156L154.484 45H145.588L139.412 29.768ZM163.058 45V18.728H172.786V45H163.058ZM168.05 13.32C166.514 13.32 165.213 12.7867 164.146 11.72C163.079 10.632 162.546 9.34133 162.546 7.848C162.546 6.35467 163.079 5.064 164.146 3.976C165.234 2.86666 166.535 2.312 168.05 2.312C169.053 2.312 169.97 2.568 170.802 3.08C171.634 3.57066 172.306 4.232 172.818 5.064C173.33 5.896 173.586 6.824 173.586 7.848C173.586 9.34133 173.042 10.632 171.954 11.72C170.866 12.7867 169.565 13.32 168.05 13.32ZM194.208 18.728H205.216L192.832 31.272L206.496 45H195.232L185.088 34.44V45H175.36V0.967999H185.088V27.88L194.208 18.728ZM206.22 45V18.728H215.948V45H206.22ZM211.212 13.32C209.676 13.32 208.375 12.7867 207.308 11.72C206.242 10.632 205.708 9.34133 205.708 7.848C205.708 6.35467 206.242 5.064 207.308 3.976C208.396 2.86666 209.698 2.312 211.212 2.312C212.215 2.312 213.132 2.568 213.964 3.08C214.796 3.57066 215.468 4.232 215.98 5.064C216.492 5.896 216.748 6.824 216.748 7.848C216.748 9.34133 216.204 10.632 215.116 11.72C214.028 12.7867 212.727 13.32 211.212 13.32Z" fill="black"/>
</svg>
